<?xml version="1.0" standalone="no"?>
<svg xmlns="http://www.w3.org/2000/svg" version="1.1" width="400" height="400">
	<!-- Created with https://api.qrserver.com (QR Code API, see goQR.me/api for information) -->
	<title>QR Code</title>
	<desc>https://vs.hn/boothraffle</desc>
	<rect style="fill:rgb(255, 255, 255);fill-opacity:1" x="0" y="0" width="400" height="400" />
	<g id="elements">
		<path style="fill:rgb(0, 0, 0)" d="M 0,0 l 16,0 0,16 -16,0 z M 16,0 l 16,0 0,16 -16,0 z M 32,0 l 16,0 0,16 -16,0 z M 48,0 l 16,0 0,16 -16,0 z M 64,0 l 16,0 0,16 -16,0 z M 80,0 l 16,0 0,16 -16,0 z M 96,0 l 16,0 0,16 -16,0 z M 160,0 l 16,0 0,16 -16,0 z M 192,0 l 16,0 0,16 -16,0 z M 224,0 l 16,0 0,16 -16,0 z M 256,0 l 16,0 0,16 -16,0 z M 288,0 l 16,0 0,16 -16,0 z M 304,0 l 16,0 0,16 -16,0 z M 320,0 l 16,0 0,16 -16,0 z M 336,0 l 16,0 0,16 -16,0 z M 352,0 l 16,0 0,16 -16,0 z M 368,0 l 16,0 0,16 -16,0 z M 384,0 l 16,0 0,16 -16,0 z M 0,16 l 16,0 0,16 -16,0 z M 96,16 l 16,0 0,16 -16,0 z M 128,16 l 16,0 0,16 -16,0 z M 160,16 l 16,0 0,16 -16,0 z M 224,16 l 16,0 0,16 -16,0 z M 240,16 l 16,0 0,16 -16,0 z M 256,16 l 16,0 0,16 -16,0 z M 288,16 l 16,0 0,16 -16,0 z M 384,16 l 16,0 0,16 -16,0 z M 0,32 l 16,0 0,16 -16,0 z M 32,32 l 16,0 0,16 -16,0 z M 48,32 l 16,0 0,16 -16,0 z M 64,32 l 16,0 0,16 -16,0 z M 96,32 l 16,0 0,16 -16,0 z M 192,32 l 16,0 0,16 -16,0 z M 256,32 l 16,0 0,16 -16,0 z M 288,32 l 16,0 0,16 -16,0 z M 320,32 l 16,0 0,16 -16,0 z M 336,32 l 16,0 0,16 -16,0 z M 352,32 l 16,0 0,16 -16,0 z M 384,32 l 16,0 0,16 -16,0 z M 0,48 l 16,0 0,16 -16,0 z M 32,48 l 16,0 0,16 -16,0 z M 48,48 l 16,0 0,16 -16,0 z M 64,48 l 16,0 0,16 -16,0 z M 96,48 l 16,0 0,16 -16,0 z M 128,48 l 16,0 0,16 -16,0 z M 144,48 l 16,0 0,16 -16,0 z M 160,48 l 16,0 0,16 -16,0 z M 192,48 l 16,0 0,16 -16,0 z M 208,48 l 16,0 0,16 -16,0 z M 224,48 l 16,0 0,16 -16,0 z M 288,48 l 16,0 0,16 -16,0 z M 320,48 l 16,0 0,16 -16,0 z M 336,48 l 16,0 0,16 -16,0 z M 352,48 l 16,0 0,16 -16,0 z M 384,48 l 16,0 0,16 -16,0 z M 0,64 l 16,0 0,16 -16,0 z M 32,64 l 16,0 0,16 -16,0 z M 48,64 l 16,0 0,16 -16,0 z M 64,64 l 16,0 0,16 -16,0 z M 96,64 l 16,0 0,16 -16,0 z M 144,64 l 16,0 0,16 -16,0 z M 208,64 l 16,0 0,16 -16,0 z M 256,64 l 16,0 0,16 -16,0 z M 288,64 l 16,0 0,16 -16,0 z M 320,64 l 16,0 0,16 -16,0 z M 336,64 l 16,0 0,16 -16,0 z M 352,64 l 16,0 0,16 -16,0 z M 384,64 l 16,0 0,16 -16,0 z M 0,80 l 16,0 0,16 -16,0 z M 96,80 l 16,0 0,16 -16,0 z M 128,80 l 16,0 0,16 -16,0 z M 144,80 l 16,0 0,16 -16,0 z M 176,80 l 16,0 0,16 -16,0 z M 192,80 l 16,0 0,16 -16,0 z M 240,80 l 16,0 0,16 -16,0 z M 256,80 l 16,0 0,16 -16,0 z M 288,80 l 16,0 0,16 -16,0 z M 384,80 l 16,0 0,16 -16,0 z M 0,96 l 16,0 0,16 -16,0 z M 16,96 l 16,0 0,16 -16,0 z M 32,96 l 16,0 0,16 -16,0 z M 48,96 l 16,0 0,16 -16,0 z M 64,96 l 16,0 0,16 -16,0 z M 80,96 l 16,0 0,16 -16,0 z M 96,96 l 16,0 0,16 -16,0 z M 128,96 l 16,0 0,16 -16,0 z M 160,96 l 16,0 0,16 -16,0 z M 192,96 l 16,0 0,16 -16,0 z M 224,96 l 16,0 0,16 -16,0 z M 256,96 l 16,0 0,16 -16,0 z M 288,96 l 16,0 0,16 -16,0 z M 304,96 l 16,0 0,16 -16,0 z M 320,96 l 16,0 0,16 -16,0 z M 336,96 l 16,0 0,16 -16,0 z M 352,96 l 16,0 0,16 -16,0 z M 368,96 l 16,0 0,16 -16,0 z M 384,96 l 16,0 0,16 -16,0 z M 144,112 l 16,0 0,16 -16,0 z M 160,112 l 16,0 0,16 -16,0 z M 176,112 l 16,0 0,16 -16,0 z M 256,112 l 16,0 0,16 -16,0 z M 0,128 l 16,0 0,16 -16,0 z M 16,128 l 16,0 0,16 -16,0 z M 32,128 l 16,0 0,16 -16,0 z M 48,128 l 16,0 0,16 -16,0 z M 64,128 l 16,0 0,16 -16,0 z M 96,128 l 16,0 0,16 -16,0 z M 112,128 l 16,0 0,16 -16,0 z M 128,128 l 16,0 0,16 -16,0 z M 144,128 l 16,0 0,16 -16,0 z M 176,128 l 16,0 0,16 -16,0 z M 208,128 l 16,0 0,16 -16,0 z M 224,128 l 16,0 0,16 -16,0 z M 272,128 l 16,0 0,16 -16,0 z M 304,128 l 16,0 0,16 -16,0 z M 336,128 l 16,0 0,16 -16,0 z M 368,128 l 16,0 0,16 -16,0 z M 16,144 l 16,0 0,16 -16,0 z M 32,144 l 16,0 0,16 -16,0 z M 80,144 l 16,0 0,16 -16,0 z M 128,144 l 16,0 0,16 -16,0 z M 160,144 l 16,0 0,16 -16,0 z M 192,144 l 16,0 0,16 -16,0 z M 224,144 l 16,0 0,16 -16,0 z M 256,144 l 16,0 0,16 -16,0 z M 272,144 l 16,0 0,16 -16,0 z M 304,144 l 16,0 0,16 -16,0 z M 368,144 l 16,0 0,16 -16,0 z M 0,160 l 16,0 0,16 -16,0 z M 32,160 l 16,0 0,16 -16,0 z M 64,160 l 16,0 0,16 -16,0 z M 96,160 l 16,0 0,16 -16,0 z M 128,160 l 16,0 0,16 -16,0 z M 160,160 l 16,0 0,16 -16,0 z M 208,160 l 16,0 0,16 -16,0 z M 240,160 l 16,0 0,16 -16,0 z M 288,160 l 16,0 0,16 -16,0 z M 320,160 l 16,0 0,16 -16,0 z M 336,160 l 16,0 0,16 -16,0 z M 368,160 l 16,0 0,16 -16,0 z M 384,160 l 16,0 0,16 -16,0 z M 16,176 l 16,0 0,16 -16,0 z M 48,176 l 16,0 0,16 -16,0 z M 80,176 l 16,0 0,16 -16,0 z M 192,176 l 16,0 0,16 -16,0 z M 272,176 l 16,0 0,16 -16,0 z M 304,176 l 16,0 0,16 -16,0 z M 384,176 l 16,0 0,16 -16,0 z M 0,192 l 16,0 0,16 -16,0 z M 16,192 l 16,0 0,16 -16,0 z M 80,192 l 16,0 0,16 -16,0 z M 96,192 l 16,0 0,16 -16,0 z M 144,192 l 16,0 0,16 -16,0 z M 160,192 l 16,0 0,16 -16,0 z M 192,192 l 16,0 0,16 -16,0 z M 208,192 l 16,0 0,16 -16,0 z M 224,192 l 16,0 0,16 -16,0 z M 240,192 l 16,0 0,16 -16,0 z M 288,192 l 16,0 0,16 -16,0 z M 304,192 l 16,0 0,16 -16,0 z M 320,192 l 16,0 0,16 -16,0 z M 352,192 l 16,0 0,16 -16,0 z M 368,192 l 16,0 0,16 -16,0 z M 384,192 l 16,0 0,16 -16,0 z M 0,208 l 16,0 0,16 -16,0 z M 16,208 l 16,0 0,16 -16,0 z M 32,208 l 16,0 0,16 -16,0 z M 48,208 l 16,0 0,16 -16,0 z M 256,208 l 16,0 0,16 -16,0 z M 304,208 l 16,0 0,16 -16,0 z M 336,208 l 16,0 0,16 -16,0 z M 368,208 l 16,0 0,16 -16,0 z M 0,224 l 16,0 0,16 -16,0 z M 48,224 l 16,0 0,16 -16,0 z M 64,224 l 16,0 0,16 -16,0 z M 80,224 l 16,0 0,16 -16,0 z M 96,224 l 16,0 0,16 -16,0 z M 144,224 l 16,0 0,16 -16,0 z M 160,224 l 16,0 0,16 -16,0 z M 176,224 l 16,0 0,16 -16,0 z M 192,224 l 16,0 0,16 -16,0 z M 240,224 l 16,0 0,16 -16,0 z M 256,224 l 16,0 0,16 -16,0 z M 272,224 l 16,0 0,16 -16,0 z M 304,224 l 16,0 0,16 -16,0 z M 320,224 l 16,0 0,16 -16,0 z M 336,224 l 16,0 0,16 -16,0 z M 368,224 l 16,0 0,16 -16,0 z M 384,224 l 16,0 0,16 -16,0 z M 0,240 l 16,0 0,16 -16,0 z M 48,240 l 16,0 0,16 -16,0 z M 128,240 l 16,0 0,16 -16,0 z M 160,240 l 16,0 0,16 -16,0 z M 176,240 l 16,0 0,16 -16,0 z M 224,240 l 16,0 0,16 -16,0 z M 256,240 l 16,0 0,16 -16,0 z M 304,240 l 16,0 0,16 -16,0 z M 320,240 l 16,0 0,16 -16,0 z M 384,240 l 16,0 0,16 -16,0 z M 0,256 l 16,0 0,16 -16,0 z M 32,256 l 16,0 0,16 -16,0 z M 80,256 l 16,0 0,16 -16,0 z M 96,256 l 16,0 0,16 -16,0 z M 112,256 l 16,0 0,16 -16,0 z M 160,256 l 16,0 0,16 -16,0 z M 176,256 l 16,0 0,16 -16,0 z M 192,256 l 16,0 0,16 -16,0 z M 208,256 l 16,0 0,16 -16,0 z M 224,256 l 16,0 0,16 -16,0 z M 256,256 l 16,0 0,16 -16,0 z M 272,256 l 16,0 0,16 -16,0 z M 288,256 l 16,0 0,16 -16,0 z M 304,256 l 16,0 0,16 -16,0 z M 320,256 l 16,0 0,16 -16,0 z M 352,256 l 16,0 0,16 -16,0 z M 128,272 l 16,0 0,16 -16,0 z M 144,272 l 16,0 0,16 -16,0 z M 160,272 l 16,0 0,16 -16,0 z M 192,272 l 16,0 0,16 -16,0 z M 240,272 l 16,0 0,16 -16,0 z M 256,272 l 16,0 0,16 -16,0 z M 320,272 l 16,0 0,16 -16,0 z M 336,272 l 16,0 0,16 -16,0 z M 0,288 l 16,0 0,16 -16,0 z M 16,288 l 16,0 0,16 -16,0 z M 32,288 l 16,0 0,16 -16,0 z M 48,288 l 16,0 0,16 -16,0 z M 64,288 l 16,0 0,16 -16,0 z M 80,288 l 16,0 0,16 -16,0 z M 96,288 l 16,0 0,16 -16,0 z M 128,288 l 16,0 0,16 -16,0 z M 144,288 l 16,0 0,16 -16,0 z M 208,288 l 16,0 0,16 -16,0 z M 224,288 l 16,0 0,16 -16,0 z M 256,288 l 16,0 0,16 -16,0 z M 288,288 l 16,0 0,16 -16,0 z M 320,288 l 16,0 0,16 -16,0 z M 352,288 l 16,0 0,16 -16,0 z M 368,288 l 16,0 0,16 -16,0 z M 384,288 l 16,0 0,16 -16,0 z M 0,304 l 16,0 0,16 -16,0 z M 96,304 l 16,0 0,16 -16,0 z M 240,304 l 16,0 0,16 -16,0 z M 256,304 l 16,0 0,16 -16,0 z M 320,304 l 16,0 0,16 -16,0 z M 336,304 l 16,0 0,16 -16,0 z M 368,304 l 16,0 0,16 -16,0 z M 384,304 l 16,0 0,16 -16,0 z M 0,320 l 16,0 0,16 -16,0 z M 32,320 l 16,0 0,16 -16,0 z M 48,320 l 16,0 0,16 -16,0 z M 64,320 l 16,0 0,16 -16,0 z M 96,320 l 16,0 0,16 -16,0 z M 128,320 l 16,0 0,16 -16,0 z M 144,320 l 16,0 0,16 -16,0 z M 160,320 l 16,0 0,16 -16,0 z M 192,320 l 16,0 0,16 -16,0 z M 208,320 l 16,0 0,16 -16,0 z M 224,320 l 16,0 0,16 -16,0 z M 240,320 l 16,0 0,16 -16,0 z M 256,320 l 16,0 0,16 -16,0 z M 272,320 l 16,0 0,16 -16,0 z M 288,320 l 16,0 0,16 -16,0 z M 304,320 l 16,0 0,16 -16,0 z M 320,320 l 16,0 0,16 -16,0 z M 352,320 l 16,0 0,16 -16,0 z M 0,336 l 16,0 0,16 -16,0 z M 32,336 l 16,0 0,16 -16,0 z M 48,336 l 16,0 0,16 -16,0 z M 64,336 l 16,0 0,16 -16,0 z M 96,336 l 16,0 0,16 -16,0 z M 128,336 l 16,0 0,16 -16,0 z M 160,336 l 16,0 0,16 -16,0 z M 176,336 l 16,0 0,16 -16,0 z M 240,336 l 16,0 0,16 -16,0 z M 256,336 l 16,0 0,16 -16,0 z M 272,336 l 16,0 0,16 -16,0 z M 288,336 l 16,0 0,16 -16,0 z M 320,336 l 16,0 0,16 -16,0 z M 336,336 l 16,0 0,16 -16,0 z M 352,336 l 16,0 0,16 -16,0 z M 368,336 l 16,0 0,16 -16,0 z M 384,336 l 16,0 0,16 -16,0 z M 0,352 l 16,0 0,16 -16,0 z M 32,352 l 16,0 0,16 -16,0 z M 48,352 l 16,0 0,16 -16,0 z M 64,352 l 16,0 0,16 -16,0 z M 96,352 l 16,0 0,16 -16,0 z M 128,352 l 16,0 0,16 -16,0 z M 160,352 l 16,0 0,16 -16,0 z M 192,352 l 16,0 0,16 -16,0 z M 208,352 l 16,0 0,16 -16,0 z M 224,352 l 16,0 0,16 -16,0 z M 256,352 l 16,0 0,16 -16,0 z M 336,352 l 16,0 0,16 -16,0 z M 352,352 l 16,0 0,16 -16,0 z M 384,352 l 16,0 0,16 -16,0 z M 0,368 l 16,0 0,16 -16,0 z M 96,368 l 16,0 0,16 -16,0 z M 128,368 l 16,0 0,16 -16,0 z M 144,368 l 16,0 0,16 -16,0 z M 240,368 l 16,0 0,16 -16,0 z M 256,368 l 16,0 0,16 -16,0 z M 304,368 l 16,0 0,16 -16,0 z M 320,368 l 16,0 0,16 -16,0 z M 336,368 l 16,0 0,16 -16,0 z M 384,368 l 16,0 0,16 -16,0 z M 0,384 l 16,0 0,16 -16,0 z M 16,384 l 16,0 0,16 -16,0 z M 32,384 l 16,0 0,16 -16,0 z M 48,384 l 16,0 0,16 -16,0 z M 64,384 l 16,0 0,16 -16,0 z M 80,384 l 16,0 0,16 -16,0 z M 96,384 l 16,0 0,16 -16,0 z M 128,384 l 16,0 0,16 -16,0 z M 144,384 l 16,0 0,16 -16,0 z M 160,384 l 16,0 0,16 -16,0 z M 176,384 l 16,0 0,16 -16,0 z M 192,384 l 16,0 0,16 -16,0 z M 208,384 l 16,0 0,16 -16,0 z M 224,384 l 16,0 0,16 -16,0 z M 288,384 l 16,0 0,16 -16,0 z M 304,384 l 16,0 0,16 -16,0 z M 320,384 l 16,0 0,16 -16,0 z M 336,384 l 16,0 0,16 -16,0 z M 352,384 l 16,0 0,16 -16,0 z M 368,384 l 16,0 0,16 -16,0 z M 384,384 l 16,0 0,16 -16,0 z " />
	</g>
</svg>
